<svg width="1600" height="640" viewBox="0 0 1600 640" fill="none" xmlns="http://www.w3.org/2000/svg">
  <defs>
    <linearGradient id="bg" x1="0" y1="0" x2="1600" y2="640" gradientUnits="userSpaceOnUse">
      <stop stop-color="#ECFDF5"/>
      <stop offset="1" stop-color="#E0F2FE"/>
    </linearGradient>
    <linearGradient id="panel" x1="0" y1="0" x2="920" y2="520" gradientUnits="userSpaceOnUse">
      <stop stop-color="#0B2942"/>
      <stop offset="1" stop-color="#123C5A"/>
    </linearGradient>
    <linearGradient id="accent" x1="0" y1="0" x2="1" y2="1">
      <stop stop-color="#16A34A"/>
      <stop offset="1" stop-color="#0EA5E9"/>
    </linearGradient>
    <filter id="shadow" x="250" y="90" width="1120" height="460" filterUnits="userSpaceOnUse" color-interpolation-filters="sRGB">
      <feDropShadow dx="0" dy="18" stdDeviation="24" flood-color="#0F172A" flood-opacity="0.16"/>
    </filter>
  </defs>

  <rect width="1600" height="640" fill="url(#bg)"/>
  <circle cx="80" cy="90" r="180" fill="#BAE6FD" fill-opacity="0.6"/>
  <circle cx="1480" cy="160" r="120" fill="#BBF7D0" fill-opacity="0.7"/>
  <circle cx="830" cy="620" r="180" fill="#BFDBFE" fill-opacity="0.5"/>

  <g filter="url(#shadow)">
    <rect x="320" y="120" width="960" height="400" rx="30" fill="white"/>
  </g>

  <rect x="320" y="120" width="470" height="400" rx="30" fill="url(#panel)"/>
  <rect x="372" y="168" width="150" height="36" rx="10" fill="white" fill-opacity="0.12"/>
  <text x="447" y="191" text-anchor="middle" font-family="Segoe UI, Arial, sans-serif" font-weight="700" font-size="22" fill="white">FARMA SYS PRO</text>

  <text x="372" y="270" font-family="Segoe UI, Arial, sans-serif" font-weight="700" font-size="58" fill="white">Gestao inteligente</text>
  <text x="372" y="338" font-family="Segoe UI, Arial, sans-serif" font-weight="700" font-size="58" fill="white">para farmacia</text>
  <text x="372" y="394" font-family="Segoe UI, Arial, sans-serif" font-size="28" fill="#D9F99D">PDV, Caixa, Estoque, XML e Receita</text>

  <rect x="372" y="428" width="338" height="58" rx="16" fill="white" fill-opacity="0.11"/>
  <text x="541" y="464" text-anchor="middle" font-family="Segoe UI, Arial, sans-serif" font-weight="600" font-size="25" fill="white">Operacao real de farmacia</text>

  <rect x="840" y="160" width="390" height="78" rx="18" fill="#F8FAFC"/>
  <text x="876" y="194" font-family="Segoe UI, Arial, sans-serif" font-size="22" fill="#64748B">Faturamento de hoje</text>
  <text x="876" y="226" font-family="Segoe UI, Arial, sans-serif" font-weight="700" font-size="38" fill="#0F172A">R$ 12.480,90</text>

  <rect x="840" y="256" width="184" height="110" rx="18" fill="#F8FAFC"/>
  <text x="872" y="292" font-family="Segoe UI, Arial, sans-serif" font-size="21" fill="#64748B">Comandas</text>
  <text x="872" y="338" font-family="Segoe UI, Arial, sans-serif" font-weight="700" font-size="46" fill="#0F172A">127</text>

  <rect x="1046" y="256" width="184" height="110" rx="18" fill="#F8FAFC"/>
  <text x="1078" y="292" font-family="Segoe UI, Arial, sans-serif" font-size="21" fill="#64748B">Produtos</text>
  <text x="1078" y="338" font-family="Segoe UI, Arial, sans-serif" font-weight="700" font-size="46" fill="#0F172A">728</text>

  <rect x="840" y="384" width="390" height="96" rx="18" fill="url(#accent)"/>
  <text x="876" y="424" font-family="Segoe UI, Arial, sans-serif" font-size="22" fill="white">Modulos principais</text>
  <text x="876" y="462" font-family="Segoe UI, Arial, sans-serif" font-weight="700" font-size="28" fill="white">PDV • Estoque • XML • Relatorios</text>
</svg>
